<?xml version="1.0" encoding="utf-8"?>
<!-- Generator: Adobe Illustrator 25.2.3, SVG Export Plug-In . SVG Version: 6.00 Build 0)  -->
<svg version="1.1"
	 id="svg2" inkscape:version="0.48.2 r9819" sodipodi:docname="New document 1" xmlns:cc="http://creativecommons.org/ns#" xmlns:dc="http://purl.org/dc/elements/1.1/" xmlns:inkscape="http://www.inkscape.org/namespaces/inkscape" xmlns:ns1="http://sozi.baierouge.fr" xmlns:rdf="http://www.w3.org/1999/02/22-rdf-syntax-ns#" xmlns:sodipodi="http://sodipodi.sourceforge.net/DTD/sodipodi-0.dtd" xmlns:svg="http://www.w3.org/2000/svg"
	 xmlns="http://www.w3.org/2000/svg" xmlns:xlink="http://www.w3.org/1999/xlink" x="0px" y="0px" width="45px" height="45px" viewBox="0 0 97.1 148.6"
	 style="enable-background:new 0 0 97.1 148.6;" xml:space="preserve">
<style type="text/css">
	.st0{fill:#007C00;stroke:#000000;stroke-width:3;stroke-miterlimit:10;}
	.st1{fill:#FFFFFF;}
	.st2{fill:#FFFFFF;stroke:#007C00;stroke-miterlimit:10;}
</style>
<g id="layer1" transform="translate(-434.69 -347.75)" inkscape:groupmode="layer" inkscape:label="Layer 1">
	<path id="rect3780" inkscape:connector-curvature="0" sodipodi:nodetypes="sszczss" class="st0" d="M483.2,349.1
		c-26.1,0-47.2,21.2-47.2,47.3c0,29.7,21.5,40.4,29.3,51.8c7.8,11.5,16.5,24.1,17.9,46.8c1.4-22.7,9-33.7,17.5-46.8
		c8.5-13.2,29.8-25.8,29.8-51.8S509.3,349.1,483.2,349.1L483.2,349.1z"/>
</g>
<g>
	<polygon class="st1" points="71.6,54.2 79,54.2 70.6,44.7 76.7,44.7 68.7,35.6 72.5,35.6 66,27.1 59.5,35.6 63.3,35.6 55.3,44.7 
		61.4,44.7 53,54.2 60.5,54.2 50.8,65.2 62.4,65.2 62.4,85.9 69.6,85.9 69.6,65.2 81.2,65.2 	"/>
	<polygon class="st2" points="49.5,44.8 61.5,44.8 48,31.8 57.8,31.8 44.9,19.3 51,19.3 40.5,7.6 30,19.3 36.1,19.3 23.1,31.8 
		33,31.8 19.5,44.8 31.5,44.8 15.9,59.9 34.7,59.9 34.7,88.2 46.3,88.2 46.3,59.9 65.1,59.9 	"/>
</g>
</svg>
