<?xml version="1.0" encoding="utf-8"?>
<!-- Generator: Adobe Illustrator 25.2.3, SVG Export Plug-In . SVG Version: 6.00 Build 0)  -->
<svg version="1.1"
	 id="svg2" inkscape:version="0.48.2 r9819" sodipodi:docname="New document 1" xmlns:cc="http://creativecommons.org/ns#" xmlns:dc="http://purl.org/dc/elements/1.1/" xmlns:inkscape="http://www.inkscape.org/namespaces/inkscape" xmlns:ns1="http://sozi.baierouge.fr" xmlns:rdf="http://www.w3.org/1999/02/22-rdf-syntax-ns#" xmlns:sodipodi="http://sodipodi.sourceforge.net/DTD/sodipodi-0.dtd" xmlns:svg="http://www.w3.org/2000/svg"
	 xmlns="http://www.w3.org/2000/svg" xmlns:xlink="http://www.w3.org/1999/xlink" x="0px" y="0px" width="70px" height="70px" viewBox="0 0 70 70"
	 style="enable-background:new 0 0 70 70;" xml:space="preserve">
<style type="text/css">
	.st0{fill:#FF3366;stroke:#000000;stroke-width:0.9736;stroke-miterlimit:3.2452;}
	.st1{fill:none;stroke:#000000;stroke-width:0.9736;stroke-miterlimit:3.2452;}
	.st2{fill:none;stroke:#000000;stroke-width:0.3245;stroke-miterlimit:3.2452;}
</style>
<sodipodi:namedview  bordercolor="#666666" borderopacity="1.0" fit-margin-bottom="0" fit-margin-left="0" fit-margin-right="0" fit-margin-top="0" id="base" inkscape:current-layer="layer1" inkscape:cx="-380.08261" inkscape:cy="188.64063" inkscape:document-units="px" inkscape:pageopacity="0.0" inkscape:pageshadow="2" inkscape:window-height="1018" inkscape:window-maximized="1" inkscape:window-width="1920" inkscape:window-x="-8" inkscape:window-y="-8" inkscape:zoom="0.35" pagecolor="#ffffff" showgrid="false">
	</sodipodi:namedview>
<g>
	<path id="rect3780" inkscape:connector-curvature="0" sodipodi:nodetypes="sszczss" class="st0" d="M35,1
		c-8.5,0-15.3,6.9-15.3,15.4c0,9.6,7,13.1,9.5,16.8c2.5,3.7,5.4,26.7,5.8,34.1c0.5-7.4,2.9-29.8,5.6-34.1c2.8-4.3,9.7-8.4,9.7-16.8
		S43.5,1,35,1L35,1z"/>
	<path id="path3777" inkscape:connector-curvature="0" d="M30.7,5.7l-1.7,2.8L23.2,11l1.7,3.9l3.3-1.4l0.2,1.1l4.8-1.8L30.7,5.7z
		 M46.8,10.5c-1,1.8-2,3.5-4.4,4.2h-8.6l-0.3-1l-5,1.9l0,0l-0.1,10.9h2.8l1.1-4.5h8.1l1,4.5h2.7l0.2-9.7
		C46.6,13.9,46.8,12.1,46.8,10.5L46.8,10.5z"/>
	<ellipse class="st1" cx="35" cy="67" rx="7.5" ry="1.9"/>
	<ellipse class="st2" cx="35" cy="67" rx="4.5" ry="0.7"/>
</g>
</svg>
