<?xml version="1.0" encoding="utf-8"?>
<!-- Generator: Adobe Illustrator 25.2.3, SVG Export Plug-In . SVG Version: 6.00 Build 0)  -->
<svg version="1.1"
	 id="svg2" inkscape:version="0.48.2 r9819" sodipodi:docname="New document 1" xmlns:cc="http://creativecommons.org/ns#" xmlns:dc="http://purl.org/dc/elements/1.1/" xmlns:inkscape="http://www.inkscape.org/namespaces/inkscape" xmlns:ns1="http://sozi.baierouge.fr" xmlns:rdf="http://www.w3.org/1999/02/22-rdf-syntax-ns#" xmlns:sodipodi="http://sodipodi.sourceforge.net/DTD/sodipodi-0.dtd" xmlns:svg="http://www.w3.org/2000/svg"
	 xmlns="http://www.w3.org/2000/svg" xmlns:xlink="http://www.w3.org/1999/xlink" x="0px" y="0px"  width="45px" height="45px" viewBox="0 0 45 45"
	 style="enable-background:new 0 0 45 45;" xml:space="preserve">
<style type="text/css">
	.st0{fill:#FFDBA1;stroke:#000000;stroke-width:0.9085;stroke-miterlimit:3.0283;}
</style>
<g id="layer1" transform="translate(-434.69 -347.75)" inkscape:groupmode="layer" inkscape:label="Layer 1">
	<path id="rect3780" inkscape:connector-curvature="0" sodipodi:nodetypes="sszczss" class="st0" d="M457.2,348.2
		c-7.9,0-14.3,6.4-14.3,14.3c0,9,6.5,12.2,8.9,15.7c2.4,3.5,5,7.3,5.4,14.2c0.4-6.9,2.7-10.2,5.3-14.2c2.6-4,9-7.8,9-15.7
		C471.5,354.6,465.1,348.2,457.2,348.2L457.2,348.2z"/>
</g>
<g>
	<path d="M31.5,13.6c-0.1,0.7-0.3,1.3-0.5,1.9c-0.1,0.1-0.1,0.2-0.2,0.1c-0.7-0.4-1.5-0.8-2.3-1c-0.3-0.1-0.6-0.2-0.9-0.2
		c-0.1,0-0.2-0.1-0.3-0.2c-0.3-0.3-0.6-0.5-1-0.7c-0.1-0.1-0.2,0-0.2,0.1c-0.5,1.3-0.9,2.6-1.4,3.9c-0.3,0.7-0.5,1.4-0.8,2.1
		c-0.1,0.2-0.1,0.2,0.1,0.2c1.1,0.1,2.1,0.3,3.1,0.7c1,0.3,1.9,0.7,2.7,1.3c0.1,0.1,0.1,0.1,0,0.2c-0.3,0.1-0.6,0.4-0.9,0.6
		c-0.4,0.2-0.6,0.2-1,0c-0.5-0.3-1-0.6-1.6-0.8c-1.1-0.2-2.1-0.1-3,0.5c-0.1,0.1-0.3,0.2-0.4,0.3c-0.3,0.2-0.6,0.2-0.9,0
		c-0.4-0.3-0.8-0.5-1.2-0.7c-1.2-0.4-2.3-0.3-3.4,0.4c-0.2,0.1-0.3,0.2-0.5,0.3c-0.3,0.2-0.6,0.2-0.9,0c-0.3-0.2-0.6-0.4-1-0.6
		c-0.1-0.1,0-0.1,0-0.1c0.5-0.3,1.1-0.6,1.6-0.8c1.3-0.6,2.6-0.9,4-1.1c0.6-0.1,1.1-0.1,1.7-0.1c0.2,0,0.2-0.1,0.3-0.2
		c0.7-2,1.4-4,2.2-6c0-0.1,0.1-0.3,0.1-0.4c0-0.1,0-0.2-0.1-0.2c-0.4-0.1-0.7-0.1-1.1-0.1c-0.2,0-0.3,0-0.5-0.1
		c-1-0.5-2-0.9-3.1-1.1c-0.3,0-0.3,0-0.2-0.3c0.3-0.9,0.8-1.8,1.5-2.5c0.9-0.9,2-1.4,3.2-1.6c0.7-0.1,1.4-0.1,2.1,0.1
		c0.2,0,0.2,0,0.3-0.1c0.1-0.2,0.1-0.3,0.2-0.5c0,0,0,0,0.1,0C27.7,6.9,27.8,6.9,28,7c0.4,0.2,0.4,0.2,0.3,0.6
		c-0.1,0.3-0.1,0.2,0.2,0.4c1.4,0.8,2.3,1.9,2.8,3.4c0.1,0.4,0.2,0.8,0.3,1.2C31.5,12.9,31.5,13.3,31.5,13.6z"/>
	<path d="M31.5,23.7c-0.5,0-0.9,0.2-1.3,0.5c-0.5,0.4-1.1,0.5-1.8,0.5c-0.5,0-1-0.2-1.5-0.5c-0.2-0.1-0.4-0.3-0.6-0.4
		c-0.6-0.3-1.2-0.3-1.8,0.1c-0.2,0.1-0.3,0.2-0.5,0.3c-1,0.6-2.1,0.6-3.1,0c-0.1-0.1-0.3-0.2-0.4-0.3c-0.7-0.4-1.3-0.4-2,0
		c-0.1,0.1-0.3,0.2-0.4,0.3c-1,0.7-2.2,0.7-3.2,0c-0.1-0.1-0.2-0.1-0.3-0.2c-0.3-0.2-0.6-0.3-0.9-0.3c-0.1,0-0.2-0.1-0.2-0.2
		c0-0.3,0-0.5,0-0.8c0-0.1,0-0.1,0.1-0.1c0.5,0,1,0.2,1.4,0.5c0.1,0.1,0.3,0.2,0.4,0.3c0.5,0.3,1,0.4,1.5,0.3
		c0.3-0.1,0.5-0.2,0.7-0.4c0.3-0.2,0.7-0.4,1.1-0.5c0.8-0.2,1.6-0.1,2.3,0.4c0.3,0.2,0.6,0.5,1,0.5c0.5,0.1,1,0,1.4-0.3
		c0.4-0.3,0.8-0.6,1.3-0.7c0.8-0.2,1.6-0.1,2.3,0.4c0,0,0,0,0.1,0c0.9,0.7,1.8,0.7,2.7,0c0.3-0.3,0.7-0.4,1.2-0.5c0.2,0,0.3,0,0.5,0
		C31.5,23,31.5,23.4,31.5,23.7z"/>
	<path d="M14.5,13.7c0.3,0,0.5,0,0.7,0c0.2,0,0.2-0.1,0.2-0.2c0-0.4,0-0.7,0-1.1c0-0.2,0-0.2,0.2-0.1c0.3,0.2,0.6,0.4,0.9,0.6
		c0.1,0.1,0.2,0.1,0.2-0.1c0.2-0.3,0.3-0.6,0.5-1c0,0,0-0.1,0.1-0.1c0.1,0,0.1,0.1,0.1,0.1c0.2,0.3,0.3,0.6,0.5,1
		c0.1,0.1,0.1,0.1,0.2,0.1c0.3-0.2,0.6-0.4,0.9-0.6c0,0,0.1-0.1,0.1-0.1c0.1,0,0,0.1,0,0.1c0,0.4,0,0.7,0,1.1c0,0.2,0,0.2,0.2,0.2
		c0.4,0,0.7,0,1.1,0c0,0,0.1,0,0.1,0c0,0,0,0.1,0,0.1c-0.2,0.3-0.4,0.6-0.6,0.9C20,14.9,20,15,20.1,15.1c0.3,0.2,0.6,0.3,1,0.5
		c0,0,0.1,0,0.1,0.1c0,0.1-0.1,0.1-0.1,0.1c-0.3,0.2-0.7,0.4-1,0.5c-0.1,0.1-0.1,0.1-0.1,0.2c0.2,0.3,0.4,0.6,0.6,0.9
		c0.1,0.2,0.1,0.2-0.1,0.2c-0.3,0-0.7,0-1,0c-0.2,0-0.2,0-0.2,0.2c0,0.3,0,0.7,0,1c0,0.2,0,0.2-0.2,0.1c-0.3-0.2-0.6-0.4-0.9-0.6
		c-0.1-0.1-0.2-0.1-0.2,0.1c-0.2,0.3-0.3,0.7-0.5,1c0,0,0,0.1-0.1,0.1c-0.1,0-0.1-0.1-0.1-0.1c-0.2-0.3-0.3-0.7-0.5-1
		c-0.1-0.1-0.1-0.1-0.2-0.1c-0.3,0.2-0.6,0.4-0.9,0.6c0,0-0.1,0.1-0.2,0.1c-0.1,0,0-0.1,0-0.2c0-0.3,0-0.7,0-1
		c0-0.2-0.1-0.2-0.2-0.2c-0.4,0-0.7,0-1.1,0c-0.2,0-0.2,0-0.1-0.2c0.2-0.3,0.4-0.6,0.6-0.9c0.1-0.1,0.1-0.2-0.1-0.2
		c-0.3-0.2-0.7-0.3-1-0.5c0,0-0.1,0-0.1-0.1c0-0.1,0.1-0.1,0.1-0.1c0.3-0.2,0.6-0.3,1-0.5c0.2-0.1,0.2-0.1,0.1-0.3
		c-0.2-0.3-0.4-0.6-0.6-0.9c0,0-0.1-0.1,0-0.1c0,0,0.1,0,0.1,0C14.3,13.7,14.4,13.7,14.5,13.7z M17.4,17.6c0.9,0,1.9-0.7,1.9-1.9
		c0-1.1-0.9-1.9-1.9-1.9c-1.1,0-1.9,0.9-1.9,1.9C15.5,16.8,16.5,17.6,17.4,17.6z"/>
</g>
</svg>
