<?xml version="1.0" encoding="utf-8"?>
<!-- Generator: Adobe Illustrator 25.2.3, SVG Export Plug-In . SVG Version: 6.00 Build 0)  -->
<svg version="1.1"
	 id="svg2" inkscape:version="0.48.2 r9819" sodipodi:docname="New document 1" xmlns:cc="http://creativecommons.org/ns#" xmlns:dc="http://purl.org/dc/elements/1.1/" xmlns:inkscape="http://www.inkscape.org/namespaces/inkscape" xmlns:ns1="http://sozi.baierouge.fr" xmlns:rdf="http://www.w3.org/1999/02/22-rdf-syntax-ns#" xmlns:sodipodi="http://sodipodi.sourceforge.net/DTD/sodipodi-0.dtd" xmlns:svg="http://www.w3.org/2000/svg"
	 xmlns="http://www.w3.org/2000/svg" xmlns:xlink="http://www.w3.org/1999/xlink" x="0px" y="0px"  width="45px" height="45px" viewBox="0 0 45 45"
	 style="enable-background:new 0 0 45 45;" xml:space="preserve">
<style type="text/css">
	.st0{fill:#393D72;stroke:#000000;stroke-width:0.9085;stroke-miterlimit:3.0283;}
	.st1{fill:#FFFFFF;}
</style>
<g id="layer1" transform="translate(-434.69 -347.75)" inkscape:groupmode="layer" inkscape:label="Layer 1">
	<path id="rect3780" inkscape:connector-curvature="0" sodipodi:nodetypes="sszczss" class="st0" d="M457.2,348.2
		c-7.9,0-14.3,6.4-14.3,14.3c0,9,6.5,12.2,8.9,15.7c2.4,3.5,5,7.3,5.4,14.2c0.4-6.9,2.7-10.2,5.3-14.2c2.6-4,9-7.8,9-15.7
		C471.5,354.6,465.1,348.2,457.2,348.2L457.2,348.2z"/>
</g>
<g>
	<g transform="translate(0.000000,1280.000000) scale(0.100000,-0.100000)">
		<path class="st1" d="M217.8,12738.1c-9.4-2.3-18.4-6.1-26.5-11.2c-3.4-2.2-9.6-6.9-11.5-8.8c-0.3-0.2-1.2-1.2-2.2-2.1
			c-2-2-4.1-4.3-5.8-6.3c-1.8-2.2-4.1-5.1-4.3-5.6c-0.1-0.2-0.6-1.1-1.2-1.9c-12.8-19.5-16.4-43.4-10-65.6
			c5.2-17.8,16.4-33.2,32.1-43.8c10-6.8,20.9-11.2,33.1-13.3c5.6-1,11.7-1.4,17.5-1.2c4.5,0.2,6.7,0.4,11.7,1.3
			c4.8,0.8,6.7,1.3,10.3,2.4c1.1,0.3,2.3,0.7,2.7,0.8c0.4,0.1,1.5,0.5,2.4,0.9c8.8,3.6,13.5,6.1,19.7,10.6c4.6,3.3,7.8,6.1,11.5,9.9
			c2.9,3,3.2,3.4,2.5,3.9c-0.3,0.2-0.6,0.2-3.1-0.2c-22.5-3.3-45.4,2.8-63.3,16.8c-18.2,14.4-29.1,36-29.7,59.1
			c-0.5,19.1,6.2,37.8,18.9,52.8c1.3,1.5,1.3,1.5,1.2,1.9c-0.1,0.6-0.4,0.7-2.5,0.3C220.3,12738.7,218.7,12738.3,217.8,12738.1z"/>
	</g>
</g>
</svg>
