<?xml version="1.0" encoding="utf-8"?>
<!-- Generator: Adobe Illustrator 25.2.3, SVG Export Plug-In . SVG Version: 6.00 Build 0)  -->
<svg version="1.1"
	 id="svg2" inkscape:version="0.48.2 r9819" sodipodi:docname="New document 1" xmlns:cc="http://creativecommons.org/ns#" xmlns:dc="http://purl.org/dc/elements/1.1/" xmlns:inkscape="http://www.inkscape.org/namespaces/inkscape" xmlns:ns1="http://sozi.baierouge.fr" xmlns:rdf="http://www.w3.org/1999/02/22-rdf-syntax-ns#" xmlns:sodipodi="http://sodipodi.sourceforge.net/DTD/sodipodi-0.dtd" xmlns:svg="http://www.w3.org/2000/svg"
	 xmlns="http://www.w3.org/2000/svg" xmlns:xlink="http://www.w3.org/1999/xlink" x="0px" y="0px"  width="45px" height="45px" viewBox="0 0 45 45"
	 style="enable-background:new 0 0 45 45;" xml:space="preserve">
<style type="text/css">
	.st0{fill:#9565A0;stroke:#000000;stroke-width:0.9085;stroke-miterlimit:3.0283;}
	.st1{fill:#FFFFFF;}
</style>
<g id="layer1" transform="translate(-434.69 -347.75)" inkscape:groupmode="layer" inkscape:label="Layer 1">
	<path id="rect3780" inkscape:connector-curvature="0" sodipodi:nodetypes="sszczss" class="st0" d="M457.2,348.2
		c-7.9,0-14.3,6.4-14.3,14.3c0,9,6.5,12.2,8.9,15.7c2.4,3.5,5,7.3,5.4,14.2c0.4-6.9,2.7-10.2,5.3-14.2c2.6-4,9-7.8,9-15.7
		C471.5,354.6,465.1,348.2,457.2,348.2L457.2,348.2z"/>
</g>
<g>
	<path class="st1" d="M16.2,19.4c0-1.2,0.6-2.1,1.7-2.6c0.8-0.4,1.5-1.1,2.1-1.8c0.6-0.7,1.2-1.4,2.2-1.6c1.2-0.2,2.6,0.1,3.3,1.3
		c0.4,0.6,0.7,1.2,1.3,1.7c0.5,0.4,1,0.7,1.5,1.1c0.9,0.7,1.1,1.8,0.8,2.7c-0.5,1.3-1.7,1.7-3,1.6c-1.3-0.1-2.5-0.6-3.8-0.5
		c-0.7,0.1-1.4,0.2-2,0.4c-1.4,0.6-3.5-0.3-3.8-1.7C16.2,19.9,16.2,19.7,16.2,19.4z"/>
	<path class="st1" d="M23,9.8c0,0.7,0,1.2-0.2,1.8c-0.3,1-1.2,1.3-2.1,1.2c-0.3,0-0.5-0.3-0.7-0.6c-0.4-0.6-0.5-1.3-0.6-2.1
		c0-0.7,0-1.4,0.2-2.1c0.4-1,1.2-1.5,2.2-1.2c0.6,0.2,0.9,0.8,1,1.4C22.9,8.7,23,9.3,23,9.8z"/>
	<path class="st1" d="M27.5,10.6c0,0.5-0.2,1.3-0.6,2c-0.3,0.6-0.8,0.9-1.5,0.9c-0.7,0-1.1-0.6-1.3-1.2c-0.5-1.5-0.4-3,0.4-4.4
		c0.5-0.8,2-0.8,2.5,0.1C27.3,8.7,27.5,9.4,27.5,10.6z"/>
	<path class="st1" d="M30.5,13.1c0,0.9-0.1,1.7-0.6,2.5c-0.3,0.6-0.9,0.9-1.5,0.9c-0.6-0.1-1.2-0.4-1.3-1.1
		c-0.3-1.4-0.1-2.6,0.8-3.8c0.3-0.4,1.1-0.7,1.6-0.5c0.6,0.2,0.9,0.8,1,1.5C30.5,12.8,30.5,13,30.5,13.1z"/>
	<path class="st1" d="M15.7,12.3c0-0.6,0-1.1,0.4-1.6c0.6-0.9,1.8-0.8,2.5,0c0.5,0.7,0.7,1.4,0.7,2.3c0,0.8-0.2,1.6-0.9,2.1
		c-1,0.6-2.2,0-2.5-1.2C15.8,13.3,15.7,12.8,15.7,12.3z"/>
</g>
</svg>
