<?xml version="1.0" encoding="utf-8"?>
<!-- Generator: Adobe Illustrator 25.2.3, SVG Export Plug-In . SVG Version: 6.00 Build 0)  -->
<svg version="1.1"
	 id="svg2" inkscape:version="0.48.2 r9819" sodipodi:docname="New document 1" xmlns:cc="http://creativecommons.org/ns#" xmlns:dc="http://purl.org/dc/elements/1.1/" xmlns:inkscape="http://www.inkscape.org/namespaces/inkscape" xmlns:ns1="http://sozi.baierouge.fr" xmlns:rdf="http://www.w3.org/1999/02/22-rdf-syntax-ns#" xmlns:sodipodi="http://sodipodi.sourceforge.net/DTD/sodipodi-0.dtd" xmlns:svg="http://www.w3.org/2000/svg"
	 xmlns="http://www.w3.org/2000/svg" xmlns:xlink="http://www.w3.org/1999/xlink" x="0px" y="0px"  width="45px" height="45px" viewBox="0 0 45 45"
	 style="enable-background:new 0 0 45 45;" xml:space="preserve">
<style type="text/css">
	.st0{fill:#60A3C4;stroke:#000000;stroke-width:0.9085;stroke-miterlimit:3.0283;}
</style>
<g id="layer1" transform="translate(-434.69 -347.75)" inkscape:groupmode="layer" inkscape:label="Layer 1">
	<path id="rect3780" inkscape:connector-curvature="0" sodipodi:nodetypes="sszczss" class="st0" d="M457.2,348.2
		c-7.9,0-14.3,6.4-14.3,14.3c0,9,6.5,12.2,8.9,15.7c2.4,3.5,5,7.3,5.4,14.2c0.4-6.9,2.7-10.2,5.3-14.2c2.6-4,9-7.8,9-15.7
		C471.5,354.6,465.1,348.2,457.2,348.2L457.2,348.2z"/>
</g>
<g>
	<path d="M26.4,17.9c-0.6,0.2-1.1,0.3-1.6,0.5c0.1,0.3,0.1,0.7,0.2,1c0.1,0.8,0.3,1.6,0.4,2.3c0.1,1-0.6,1.6-1.5,1.6
		c-0.6,0-1.1-0.5-1.2-1.1c-0.2-1.3-0.5-2.6-0.7-3.9c0-0.2-0.1-0.5-0.1-0.7c-0.1-0.8,0.4-1.3,1-1.5c0.8-0.2,1.6-0.5,2.4-0.7
		c0,0,0.1,0,0.1,0c-0.1-0.6-0.3-1.3-0.4-1.9c-0.4,0.3-0.8,0.6-1.2,0.9c-0.6,0.4-1.4,0.6-2.1,0.7c-0.3,0-0.7,0.1-1,0.1
		c-0.2,0-0.4-0.1-0.5-0.1c-0.1,0-0.2,0-0.3,0c-0.5,0.1-0.9,0.4-1.1,0.9c-0.7,1.3-1.4,2.7-2.1,4c-0.1,0.1-0.1,0.3-0.1,0.5
		c0,0.6,0,1.2,0.1,1.9c0,0.2,0,0.4,0,0.6c-0.1,0.3-0.3,0.5-0.7,0.5c-0.3,0-0.5-0.3-0.5-0.6c0-0.4,0-0.8-0.1-1.3c0,0.1,0,0.2-0.1,0.4
		c-0.1,0.4-0.1,0.7-0.2,1.1c-0.1,0.3-0.4,0.5-0.6,0.5c-0.3,0-0.6-0.3-0.5-0.7c0.1-0.8,0.2-1.6,0.4-2.4c0-0.1,0-0.2,0.1-0.3
		c0-0.2,0-0.2-0.2-0.3c-0.4-0.3-0.7-0.3-1.2-0.1c-0.2,0.1-0.4,0.2-0.6,0.2c-0.3,0.1-0.5,0-0.6-0.2c-0.1-0.2,0-0.5,0.3-0.6
		c0.3-0.1,0.6-0.2,0.9-0.4c0.1,0,0.2-0.1,0.2-0.2c0.6-1,1.1-2,1.7-3c0.1-0.1,0.1-0.2,0.2-0.3c0.7-0.5,1.4-1,2.1-1.6
		c0.1-0.1,0.2-0.1,0.2,0c0.3,0.2,0.5,0.3,0.8,0.5c0.1,0,0.2,0,0.3,0c0.2,0,0.3-0.1,0.5-0.2c0.2-0.1,0.5-0.2,0.6-0.4
		c0.2-0.3,0.6-0.4,1-0.4c1,0,1.9-0.4,2.5-1.1c0.5-0.5,0.8-1.2,0.9-2c0.1-0.9,0.6-1.5,1.4-1.8C26.8,7.8,28,8,28.7,8.8
		c0.3,0.3,0.4,0.8,0.4,1.2c0.3,1.6,0.7,3.1,1,4.7c0.1,0.5,0.1,1-0.1,1.6c-0.4,0.8-0.7,1.7-1,2.5c0,0,0,0.1-0.1,0.2
		c0.1,0,0.2,0,0.2,0c0.9,0,1.7,0,2.6,0c0.6,0,1.2,0.6,1.2,1.2c0,0.7-0.5,1.3-1,1.4c-0.1,0-0.2,0-0.2,0c-1.6,0-3.2,0-4.8,0
		c-0.9,0-1.7-0.9-1.3-1.9c0.2-0.5,0.4-1,0.6-1.5C26.4,18.1,26.4,18.1,26.4,17.9z"/>
	<path d="M25.3,8.2c-1.4,0-2.5-1.1-2.5-2.5c0-1.4,1.1-2.5,2.5-2.5c1.4,0,2.5,1.1,2.5,2.5C27.8,7,26.6,8.2,25.3,8.2z"/>
	<path d="M15.1,15c-0.3-0.5-0.6-0.9-0.9-1.4c-0.3-0.5-0.7-1-1.2-1.4c-0.3-0.3-0.3-0.6,0-0.8c0.2-0.1,0.4-0.2,0.6-0.1
		c0.2,0.1,0.4,0.2,0.6,0.3c0.1,0,0.2,0,0.2,0c0.3-0.2,0.6-0.3,1-0.4c0.5-0.1,0.8-0.4,1.1-0.6c0.1-0.1,0.3-0.2,0.5-0.3
		c0.4-0.2,0.6-0.2,0.9,0.3c0.3,0.4,0.2,0.9-0.1,1.3c-0.1,0.2-0.3,0.4-0.5,0.6c-0.1,0.1-0.1,0.2-0.1,0.3c0.1,0.1,0.1,0.3,0.2,0.4
		c0,0.1,0,0.2-0.1,0.2C16.6,13.9,15.9,14.5,15.1,15z"/>
</g>
</svg>
