<?xml version="1.0" encoding="utf-8"?>
<!-- Generator: Adobe Illustrator 25.2.3, SVG Export Plug-In . SVG Version: 6.00 Build 0)  -->
<svg version="1.1"
	 id="svg2" inkscape:version="0.48.2 r9819" sodipodi:docname="New document 1" xmlns:cc="http://creativecommons.org/ns#" xmlns:dc="http://purl.org/dc/elements/1.1/" xmlns:inkscape="http://www.inkscape.org/namespaces/inkscape" xmlns:ns1="http://sozi.baierouge.fr" xmlns:rdf="http://www.w3.org/1999/02/22-rdf-syntax-ns#" xmlns:sodipodi="http://sodipodi.sourceforge.net/DTD/sodipodi-0.dtd" xmlns:svg="http://www.w3.org/2000/svg"
	 xmlns="http://www.w3.org/2000/svg" xmlns:xlink="http://www.w3.org/1999/xlink" x="0px" y="0px" width="70px" height="70px" viewBox="0 0 101.5 215.7"
	 style="enable-background:new 0 0 101.5 215.7;" xml:space="preserve">
<style type="text/css">
	.st0{fill:#BAE505;stroke:#000000;stroke-width:3;stroke-miterlimit:10;}
	.st1{fill:none;stroke:#000000;stroke-width:3;stroke-miterlimit:10;}
	.st2{fill:none;stroke:#000000;stroke-miterlimit:10;}
</style>
<sodipodi:namedview  bordercolor="#666666" borderopacity="1.0" fit-margin-bottom="0" fit-margin-left="0" fit-margin-right="0" fit-margin-top="0" id="base" inkscape:current-layer="layer1" inkscape:cx="-380.08261" inkscape:cy="188.64063" inkscape:document-units="px" inkscape:pageopacity="0.0" inkscape:pageshadow="2" inkscape:window-height="1018" inkscape:window-maximized="1" inkscape:window-width="1920" inkscape:window-x="-8" inkscape:window-y="-8" inkscape:zoom="0.35" pagecolor="#ffffff" showgrid="false">
	</sodipodi:namedview>
<g>
	<path id="rect3780" inkscape:connector-curvature="0" sodipodi:nodetypes="sszczss" class="st0" d="M50.7,3.2
		C24.6,3.2,3.5,24.4,3.5,50.5c0,29.7,21.5,40.4,29.3,51.8c7.8,11.5,16.6,82.3,18,105c1.4-22.7,8.9-91.9,17.4-105
		C76.7,89.1,98,76.5,98,50.5S76.8,3.2,50.7,3.2L50.7,3.2z"/>
	<path id="path3777" inkscape:connector-curvature="0" d="M37.6,17.5l-5.1,8.6l-18.2,7.8l5.3,12l10.2-4.2l0.5,3.4l14.9-5.6
		L37.6,17.5z M87.2,32.3c-3.2,5.4-6.3,10.8-13.5,12.9H47.2l-1-3l-15.5,5.8l0,0l-0.4,33.6h8.7l3.4-14h25l3,14h8.3l0.6-30
		C86.6,42.8,87.1,37.4,87.2,32.3L87.2,32.3z"/>
	<ellipse class="st1" cx="50.7" cy="206.6" rx="23.1" ry="5.9"/>
	<ellipse class="st2" cx="50.7" cy="206.6" rx="14" ry="2.3"/>
</g>
</svg>
