<?xml version="1.0" encoding="utf-8"?>
<!-- Generator: Adobe Illustrator 25.2.3, SVG Export Plug-In . SVG Version: 6.00 Build 0)  -->
<svg version="1.1"
	 id="svg2" inkscape:version="0.48.2 r9819" sodipodi:docname="New document 1" xmlns:cc="http://creativecommons.org/ns#" xmlns:dc="http://purl.org/dc/elements/1.1/" xmlns:inkscape="http://www.inkscape.org/namespaces/inkscape" xmlns:ns1="http://sozi.baierouge.fr" xmlns:rdf="http://www.w3.org/1999/02/22-rdf-syntax-ns#" xmlns:sodipodi="http://sodipodi.sourceforge.net/DTD/sodipodi-0.dtd" xmlns:svg="http://www.w3.org/2000/svg"
	 xmlns="http://www.w3.org/2000/svg" xmlns:xlink="http://www.w3.org/1999/xlink" x="0px" y="0px"  width="45px" height="45px" viewBox="0 0 45 45"
	 style="enable-background:new 0 0 45 45;" xml:space="preserve">
<style type="text/css">
	.st0{fill:#6B003D;stroke:#000000;stroke-width:0.9085;stroke-miterlimit:3.0283;}
	.st1{fill:#FFFFFF;}
</style>
<g id="layer1" transform="translate(-434.69 -347.75)" inkscape:groupmode="layer" inkscape:label="Layer 1">
	<path id="rect3780" inkscape:connector-curvature="0" sodipodi:nodetypes="sszczss" class="st0" d="M457.2,348.2
		c-7.9,0-14.3,6.4-14.3,14.3c0,9,6.5,12.2,8.9,15.7c2.4,3.5,5,7.3,5.4,14.2c0.4-6.9,2.7-10.2,5.3-14.2c2.6-4,9-7.8,9-15.7
		C471.5,354.6,465.1,348.2,457.2,348.2L457.2,348.2z"/>
</g>
<g>
	<path class="st1" d="M20.4,15.1c1-0.4,2-1.1,3-1.8c0.9-0.5,1.8-1.1,2.6-1.8c0.4-0.3,0.6-0.8,0.6-1.3c0-1.1,0.6-2,1.6-2.3
		c0.6-0.2,1.3,0,1.8,0.4c0.6,0.5,0.8,1.1,0.6,1.7c-0.1,0.5,0,0.7,0.4,0.8c0.9,0.2,1.4,0.8,1.5,1.7c0.1,0.7-0.3,1.5-1,1.9
		c-0.9,0.5-1.8,0.4-2.6-0.2c-0.6-0.4-1.1-0.4-1.8-0.2c-1.1,0.4-2.2,0.9-3.2,1.5c-1.3,0.7-2.5,1.5-3.7,2.4c-0.4,0.3-0.9,0.6-1.4,1
		c-0.4,0.3-0.6,0.6-0.5,1.1c0.1,1.1-0.3,1.8-1.2,2.2c-0.8,0.4-1.6,0.3-2.3-0.3c-0.6-0.6-1-1.3-0.7-2.2c0.1-0.3,0-0.4-0.3-0.5
		c-1.1-0.4-1.5-1.2-1.3-2c0.2-1.3,1.1-2,2.2-1.9c0.4,0,0.8,0.2,1.1,0.4c0.8,0.6,1.5,0.5,2.3,0.2C18.9,15.9,19.6,15.5,20.4,15.1z"/>
</g>
</svg>
