<?xml version="1.0" encoding="utf-8"?>
<!-- Generator: Adobe Illustrator 25.2.3, SVG Export Plug-In . SVG Version: 6.00 Build 0)  -->
<svg version="1.1"
	 id="svg2" inkscape:version="0.48.2 r9819" sodipodi:docname="New document 1" xmlns:cc="http://creativecommons.org/ns#" xmlns:dc="http://purl.org/dc/elements/1.1/" xmlns:inkscape="http://www.inkscape.org/namespaces/inkscape" xmlns:ns1="http://sozi.baierouge.fr" xmlns:rdf="http://www.w3.org/1999/02/22-rdf-syntax-ns#" xmlns:sodipodi="http://sodipodi.sourceforge.net/DTD/sodipodi-0.dtd" xmlns:svg="http://www.w3.org/2000/svg"
	 xmlns="http://www.w3.org/2000/svg" xmlns:xlink="http://www.w3.org/1999/xlink" x="0px" y="0px" width="45px" height="45px" viewBox="0 0 97.1 148.6"
	 style="enable-background:new 0 0 97.1 148.6;" xml:space="preserve">
<style type="text/css">
	.st0{fill:#EEEFEA;stroke:#000000;stroke-width:3;stroke-miterlimit:10;}
	.st1{fill:#BC0000;stroke:#000000;stroke-miterlimit:10;}
</style>
<g id="layer1" transform="translate(-434.69 -347.75)" inkscape:groupmode="layer" inkscape:label="Layer 1">
	<path id="rect3780" inkscape:connector-curvature="0" sodipodi:nodetypes="sszczss" class="st0" d="M483.2,349.1
		c-26.1,0-47.2,21.2-47.2,47.3c0,29.7,21.5,40.4,29.3,51.8c7.8,11.5,16.5,24.1,17.9,46.8c1.4-22.7,9-33.7,17.5-46.8
		c8.5-13.2,29.8-25.8,29.8-51.8S509.3,349.1,483.2,349.1L483.2,349.1z"/>
</g>
<polygon class="st1" points="82.9,39.8 58,39.8 58,15.7 37.5,15.7 37.5,39.8 14.2,39.8 14.2,60.4 37.5,60.4 37.5,84.5 58,84.5 
	58,60.4 82.9,60.4 "/>
</svg>
