<?xml version="1.0" encoding="utf-8"?>
<!-- Generator: Adobe Illustrator 25.2.3, SVG Export Plug-In . SVG Version: 6.00 Build 0)  -->
<svg version="1.1"
	 id="svg2" inkscape:version="0.48.2 r9819" sodipodi:docname="New document 1" xmlns:cc="http://creativecommons.org/ns#" xmlns:dc="http://purl.org/dc/elements/1.1/" xmlns:inkscape="http://www.inkscape.org/namespaces/inkscape" xmlns:ns1="http://sozi.baierouge.fr" xmlns:rdf="http://www.w3.org/1999/02/22-rdf-syntax-ns#" xmlns:sodipodi="http://sodipodi.sourceforge.net/DTD/sodipodi-0.dtd" xmlns:svg="http://www.w3.org/2000/svg"
	 xmlns="http://www.w3.org/2000/svg" xmlns:xlink="http://www.w3.org/1999/xlink" x="0px" y="0px"  width="45px" height="45px" viewBox="0 0 45 45"
	 style="enable-background:new 0 0 45 45;" xml:space="preserve">
<style type="text/css">
	.st0{fill:#F2DE2A;stroke:#000000;stroke-width:0.9085;stroke-miterlimit:3.0283;}
</style>
<g id="layer1" transform="translate(-434.69 -347.75)" inkscape:groupmode="layer" inkscape:label="Layer 1">
	<path id="rect3780" inkscape:connector-curvature="0" sodipodi:nodetypes="sszczss" class="st0" d="M457.2,348.2
		c-7.9,0-14.3,6.4-14.3,14.3c0,9,6.5,12.2,8.9,15.7c2.4,3.5,5,7.3,5.4,14.2c0.4-6.9,2.7-10.2,5.3-14.2c2.6-4,9-7.8,9-15.7
		C471.5,354.6,465.1,348.2,457.2,348.2L457.2,348.2z"/>
	<g>
		<path d="M447,365.4c0-0.4,0-0.7,0-1.1c0.7,0,1.4,0,2.2,0c0-0.5,0-0.9,0-1.3c0-0.1-0.2-0.3-0.3-0.3c-1-0.4-1.4-1.1-1.5-2.2
			c0-0.9,0-1.7,0-2.6c1.5,0,2.9,0,4.3,0c0,1,0.1,2.1,0,3.1c-0.1,0.8-0.5,1.4-1.3,1.6c-0.4,0.1-0.5,0.4-0.5,0.7c0,0.3,0,0.6,0,0.9
			c0.6,0.1,1.2,0.1,1.7-0.3c1-0.6,2.2-1,3.3-1.4c0.3-0.1,0.6-0.1,0.9,0.2c0.6,0.5,1.3,1,2,1.6c0.7-0.6,1.4-1.1,2.1-1.6
			c0.1-0.1,0.4-0.2,0.5-0.2c2.2,0.6,4.2,1.5,5.6,3.3c0.5,0.6,0.8,1.5,1,2.3c0.2,0.7,0,1.1-0.6,1.6c-1.5,0.9-3.1,1.4-4.8,1.7
			c-3.4,0.5-6.8,0.5-10.1-0.6c-0.5-0.2-0.9-0.4-1.5-0.6c0.3-0.1,0.4-0.2,0.6-0.3c1-0.5,1.5-1.6,1.2-2.6c-0.2-1-1.2-1.8-2.3-1.8
			C448.7,365.4,447.9,365.4,447,365.4z M457.9,364.5c0,0-0.1,0-0.1,0c-0.3,1.3-0.7,2.5-1,3.8c0,0.1,0,0.2,0,0.2
			c0.3,0.5,0.7,1.1,1,1.7c0.4-0.6,0.7-1,1-1.5c0.1-0.2,0.1-0.4,0.1-0.6C458.6,366.9,458.2,365.7,457.9,364.5z M448.2,360.8
			c0.9,0,1.8,0,2.7,0c0-0.6,0-1.1,0-1.7c0-0.1-0.2-0.3-0.3-0.3c-0.7,0-1.4,0-2.1,0c-0.1,0-0.3,0.2-0.3,0.3
			C448.2,359.6,448.2,360.2,448.2,360.8z M463.4,367.1c-0.9,0-1.8,0-2.6,0c0,0.2,0,0.4,0,0.7c0.9,0,1.8,0,2.6,0
			C463.4,367.5,463.4,367.3,463.4,367.1z"/>
		<path d="M462.4,357.4c0,2.7-2.1,4.9-4.6,4.9c-2.5,0-4.6-2.2-4.6-4.8c0-2.7,2.1-4.9,4.6-4.9C460.3,352.6,462.4,354.7,462.4,357.4z"
			/>
		<path d="M449.6,366c1,0,1.8,0.8,1.8,1.8c0,1-0.8,1.7-1.8,1.7c-1,0-1.7-0.8-1.7-1.7C447.8,366.8,448.6,366,449.6,366z"/>
	</g>
</g>
</svg>
